<svg width="18" height="12" viewBox="0 0 18 12" fill="none" xmlns="http://www.w3.org/2000/svg">
<path d="M17.7497 5.99961C17.7496 5.62605 17.584 5.27949 17.4271 5.01926C17.2579 4.73844 17.0302 4.44852 16.7805 4.16584C16.2795 3.59877 15.6258 2.98979 14.9914 2.43892C14.3533 1.88481 13.7174 1.3746 13.2424 1.00383C13.0045 0.818131 12.806 0.666696 12.6666 0.561384C12.5969 0.508715 12.5419 0.467543 12.5041 0.439348L12.4605 0.406963L12.4489 0.39841L12.4449 0.39545C12.1114 0.149788 11.6415 0.220678 11.3958 0.55418C11.1502 0.887667 11.2214 1.35715 11.5548 1.60282L11.5676 1.61223L11.6076 1.642C11.643 1.6684 11.6955 1.70764 11.7625 1.75825C11.8965 1.85951 12.0886 2.0061 12.3195 2.18628C12.7819 2.54725 13.396 3.04014 14.0079 3.57149C14.6235 4.10608 15.2198 4.66491 15.6563 5.15898C15.6839 5.19023 15.7107 5.22094 15.7365 5.2511L0.999634 5.2511C0.58542 5.2511 0.249634 5.58689 0.249634 6.0011C0.249634 6.41531 0.585421 6.7511 0.999634 6.7511L15.734 6.7511C15.7089 6.7803 15.683 6.81003 15.6563 6.84026C15.2198 7.33433 14.6235 7.89316 14.0079 8.42774C13.396 8.9591 12.7819 9.45199 12.3195 9.81296C12.0886 9.99314 11.8965 10.1397 11.7625 10.241C11.6955 10.2916 11.643 10.3308 11.6076 10.3572L11.5676 10.387L11.5548 10.3964C11.2214 10.6421 11.1502 11.1116 11.3958 11.4451C11.6415 11.7786 12.1114 11.8495 12.4449 11.6038L12.4489 11.6008L12.4605 11.5923L12.5041 11.5599C12.5419 11.5317 12.5969 11.4905 12.6666 11.4379C12.806 11.3325 13.0045 11.1811 13.2424 10.9954C13.7174 10.6246 14.3533 10.1144 14.9914 9.56032C15.6258 9.00945 16.2795 8.40047 16.7805 7.8334C17.0302 7.55072 17.2579 7.2608 17.4271 6.97998C17.5831 6.72131 17.7477 6.37733 17.7496 6.00634" fill="white"/>
</svg>
