<svg width="25" height="24" viewBox="0 0 25 24" fill="none" xmlns="http://www.w3.org/2000/svg">
<path fill-rule="evenodd" clip-rule="evenodd" d="M5.65011 1.28635C6.21679 1.40348 6.66809 1.78422 6.94848 2.28725L7.84169 3.88969C8.1707 4.47989 8.44757 4.97658 8.62839 5.40835C8.82019 5.86637 8.93411 6.31803 8.88203 6.81739C8.82996 7.31675 8.62531 7.73519 8.34313 8.14378C8.07712 8.52895 7.70373 8.95783 7.26003 9.46745L5.03217 12.0265C6.79901 14.9225 9.40795 17.5326 12.3069 19.3012L14.8659 17.0734C15.3756 16.6297 15.8044 16.2563 16.1896 15.9903C16.5982 15.7081 17.0166 15.5034 17.516 15.4514C18.0154 15.3993 18.467 15.5132 18.925 15.705C19.3568 15.8858 19.8535 16.1627 20.4437 16.4917L22.0461 17.3849C22.5492 17.6653 22.9299 18.1166 23.047 18.6833C23.1654 19.2559 22.9908 19.8314 22.6053 20.3045C21.2064 22.0208 18.9651 23.1137 16.6139 22.6394C15.1686 22.3478 13.7426 21.8621 12.0179 20.873C8.55255 18.8856 5.44547 15.7768 3.4604 12.3155C2.47128 10.5908 1.98556 9.16479 1.69402 7.71953C1.21972 5.3683 2.31256 3.12703 4.02892 1.72812C4.50196 1.34258 5.0775 1.16801 5.65011 1.28635ZM13.704 20.0737C14.8704 20.6484 15.8849 20.9621 16.9105 21.169C18.6065 21.5111 20.3188 20.7356 21.4425 19.3568C21.5901 19.1758 21.591 19.0494 21.5781 18.9869C21.5639 18.9185 21.5067 18.8015 21.3158 18.6951L19.7493 17.8219C19.1137 17.4676 18.6905 17.233 18.3456 17.0886C18.0183 16.9515 17.8304 16.9267 17.6716 16.9433C17.5127 16.9598 17.334 17.0228 17.042 17.2245C16.7344 17.437 16.3687 17.7539 15.8198 18.2317L13.704 20.0737ZM4.2597 10.6293L6.10168 8.51355C6.57951 7.96469 6.89639 7.59903 7.10886 7.29138C7.31054 6.99934 7.37356 6.82065 7.39012 6.66181C7.40669 6.50297 7.3819 6.31512 7.24481 5.98776C7.10039 5.64289 6.86576 5.21972 6.51146 4.58407L5.63827 3.01756C5.53189 2.82672 5.41491 2.76945 5.3465 2.75531C5.284 2.74239 5.15762 2.7433 4.97659 2.89084C3.59781 4.0146 2.82227 5.72687 3.1644 7.42292C3.37129 8.4485 3.68497 9.46297 4.2597 10.6293Z" fill="#1B8354"/>
</svg>
