<svg width="20" height="20" viewBox="0 0 20 20" fill="none" xmlns="http://www.w3.org/2000/svg">
<path fill-rule="evenodd" clip-rule="evenodd" d="M7.95736 1.04166H7.87584C6.54062 1.04165 5.48282 1.04164 4.64597 1.14056C3.78683 1.24211 3.07958 1.45531 2.48879 1.94016C2.28836 2.10464 2.10458 2.28842 1.9401 2.48885C1.45525 3.07964 1.24205 3.78689 1.1405 4.64603C1.04158 5.48288 1.04159 6.54068 1.0416 7.8759V7.95742C1.04159 9.29263 1.04158 10.3504 1.1405 11.1873C1.24205 12.0464 1.45525 12.7537 1.9401 13.3445C2.10458 13.5449 2.28836 13.7287 2.48879 13.8932C3.04868 14.3526 3.71317 14.5682 4.51279 14.6759C5.16185 14.7634 5.94313 14.7846 6.88385 14.7899C6.89471 15.3083 6.91876 15.7635 6.97203 16.1598C7.07288 16.9099 7.28862 17.5414 7.79022 18.043C8.29182 18.5446 8.92338 18.7604 9.67347 18.8612C10.3959 18.9584 11.3145 18.9583 12.4542 18.9583H13.379C14.5186 18.9583 15.4372 18.9584 16.1597 18.8612C16.9098 18.7604 17.5414 18.5446 18.043 18.043C18.5446 17.5414 18.7603 16.9099 18.8612 16.1598C18.9583 15.4373 18.9583 14.5187 18.9583 13.379V12.4543C18.9583 11.3146 18.9583 10.396 18.8612 9.67353C18.7603 8.92344 18.5446 8.29188 18.043 7.79028C17.5414 7.28869 16.9098 7.07294 16.1597 6.97209C15.7635 6.91882 15.3082 6.89477 14.7898 6.88391C14.7845 5.94319 14.7633 5.16191 14.6759 4.51285C14.5681 3.71323 14.3526 3.04874 13.8931 2.48885C13.7286 2.28842 13.5448 2.10464 13.3444 1.94016C12.7536 1.45531 12.0464 1.24211 11.1872 1.14056C10.3504 1.04164 9.29258 1.04165 7.95736 1.04166ZM13.5397 6.875C13.5341 5.94985 13.5133 5.24569 13.4371 4.67979C13.3464 4.00665 13.1846 3.59594 12.9268 3.28184C12.8143 3.14471 12.6885 3.01896 12.5514 2.90642C12.2202 2.63464 11.7816 2.46952 11.0405 2.38192C10.2856 2.29268 9.30169 2.29166 7.9166 2.29166C6.5315 2.29166 5.54763 2.29268 4.7927 2.38191C4.05157 2.46952 3.61295 2.63464 3.28178 2.90642C3.14465 3.01896 3.0189 3.14471 2.90636 3.28184C2.63458 3.61301 2.46946 4.05163 2.38185 4.79276C2.29262 5.54769 2.2916 6.53156 2.2916 7.91666C2.2916 9.30175 2.29262 10.2856 2.38185 11.0405C2.46946 11.7817 2.63458 12.2203 2.90636 12.5515C3.0189 12.6886 3.14465 12.8143 3.28178 12.9269C3.59587 13.1847 4.00658 13.3464 4.67973 13.4371C5.24563 13.5134 5.94978 13.5342 6.87494 13.5397C6.87493 13.4867 6.87493 13.4331 6.87493 13.3791V12.4543C6.87491 11.3146 6.8749 10.396 6.97203 9.67353C7.07288 8.92344 7.28862 8.29188 7.79022 7.79028C8.29182 7.28868 8.92338 7.07294 9.67347 6.97209C10.3959 6.87496 11.3145 6.87497 12.4542 6.87499H13.379C13.433 6.87499 13.4866 6.87499 13.5397 6.875ZM8.67411 8.67417C8.90474 8.44353 9.22855 8.29316 9.84003 8.21095C10.4695 8.12632 11.3037 8.12499 12.4999 8.12499H13.3333C14.5294 8.12499 15.3637 8.12632 15.9932 8.21095C16.6046 8.29316 16.9285 8.44353 17.1591 8.67417C17.3897 8.9048 17.5401 9.22861 17.6223 9.84009C17.7069 10.4696 17.7083 11.3038 17.7083 12.5V13.3333C17.7083 14.5295 17.7069 15.3638 17.6223 15.9932C17.5401 16.6047 17.3897 16.9285 17.1591 17.1591C16.9285 17.3898 16.6046 17.5402 15.9932 17.6224C15.3637 17.707 14.5294 17.7083 13.3333 17.7083H12.4999C11.3037 17.7083 10.4695 17.707 9.84003 17.6224C9.22855 17.5402 8.90474 17.3898 8.6741 17.1591C8.44347 16.9285 8.2931 16.6047 8.21089 15.9932C8.12626 15.3638 8.12493 14.5295 8.12493 13.3333V12.5C8.12493 11.3038 8.12626 10.4695 8.21089 9.84009C8.2931 9.22861 8.44347 8.9048 8.67411 8.67417Z" fill="#1B8354"/>
</svg>
