<svg width="25" height="24" viewBox="0 0 25 24" fill="none" xmlns="http://www.w3.org/2000/svg">
<path d="M3.25 13C3.25 7.89137 7.39137 3.75 12.5 3.75C17.6086 3.75 21.75 7.89137 21.75 13C21.75 13.4142 22.0858 13.75 22.5 13.75C22.9142 13.75 23.25 13.4142 23.25 13C23.25 7.06294 18.4371 2.25 12.5 2.25C6.56294 2.25 1.75 7.06294 1.75 13C1.75 13.4142 2.08579 13.75 2.5 13.75C2.91421 13.75 3.25 13.4142 3.25 13Z" fill="#161616"/>
<path fill-rule="evenodd" clip-rule="evenodd" d="M12.5 9.25C12.9142 9.25 13.25 9.58579 13.25 10V14.325C14.9617 14.6725 16.25 16.1858 16.25 18C16.25 20.0711 14.5711 21.75 12.5 21.75C10.4289 21.75 8.75 20.0711 8.75 18C8.75 16.1858 10.0383 14.6725 11.75 14.325V10C11.75 9.58579 12.0858 9.25 12.5 9.25ZM10.25 18C10.25 16.7574 11.2574 15.75 12.5 15.75C13.7426 15.75 14.75 16.7574 14.75 18C14.75 19.2426 13.7426 20.25 12.5 20.25C11.2574 20.25 10.25 19.2426 10.25 18Z" fill="#161616"/>
</svg>
