<svg width="23" height="22" viewBox="0 0 23 22" fill="none" xmlns="http://www.w3.org/2000/svg">
<path d="M12.25 14C12.25 13.5858 11.9142 13.25 11.5 13.25C11.0858 13.25 10.75 13.5858 10.75 14V17C10.75 17.4142 11.0858 17.75 11.5 17.75C11.9142 17.75 12.25 17.4142 12.25 17V14Z" fill="white"/>
<path fill-rule="evenodd" clip-rule="evenodd" d="M11.5 0.25C10.6339 0.25 9.85968 0.526884 9.02381 0.995945C8.2139 1.45043 7.28586 2.12145 6.11887 2.96524L4.60984 4.05632C3.6733 4.73346 2.92528 5.27429 2.36109 5.77487C1.77855 6.29173 1.34274 6.807 1.0663 7.45513C0.789254 8.10469 0.722248 8.77045 0.759413 9.53808C0.795279 10.2789 0.932639 11.1727 1.10393 12.2872L1.41918 14.3387C1.66256 15.9225 1.85635 17.1836 2.14105 18.1662C2.43544 19.1821 2.85016 19.9887 3.5914 20.6052C4.32957 21.2192 5.2089 21.4926 6.28306 21.6231C7.328 21.75 8.64615 21.75 10.3111 21.75H12.6889C14.3539 21.75 15.672 21.75 16.7169 21.6231C17.7911 21.4926 18.6704 21.2192 19.4086 20.6052C20.1499 19.9887 20.5646 19.1821 20.859 18.1662C21.1437 17.1837 21.3374 15.9225 21.5808 14.3387L21.8961 12.2871C22.0674 11.1726 22.2047 10.2789 22.2406 9.53808C22.2778 8.77045 22.2108 8.10469 21.9337 7.45513C21.6573 6.807 21.2215 6.29173 20.6389 5.77487C20.0747 5.2743 19.3267 4.73347 18.3902 4.05633L16.8811 2.96525C15.7142 2.12146 14.7861 1.45043 13.9762 0.995945C13.1403 0.526884 12.3661 0.25 11.5 0.25ZM6.96043 4.20777C8.17318 3.33092 9.03198 2.7114 9.75787 2.30406C10.4664 1.90645 10.983 1.75 11.5 1.75C12.017 1.75 12.5336 1.90645 13.2421 2.30406C13.968 2.7114 14.8268 3.33092 16.0396 4.20777L17.4794 5.24884C18.4551 5.95427 19.1418 6.45189 19.6434 6.8969C20.133 7.33129 20.3961 7.6735 20.554 8.04362C20.7112 8.41232 20.7731 8.83 20.7423 9.46554C20.7107 10.119 20.5862 10.9356 20.4073 12.0995L20.1063 14.0585C19.853 15.7066 19.6726 16.8709 19.4182 17.7487C19.1704 18.6038 18.8761 19.0971 18.4494 19.452C18.0197 19.8094 17.4613 20.0217 16.5361 20.134C15.5921 20.2487 14.365 20.25 12.6388 20.25H10.3612C8.63497 20.25 7.40793 20.2487 6.46392 20.134C5.53868 20.0217 4.98034 19.8094 4.5506 19.452C4.12394 19.0971 3.82959 18.6038 3.58178 17.7487C3.32742 16.8709 3.147 15.7066 2.89373 14.0585L2.59269 12.0995C2.41382 10.9356 2.2893 10.119 2.25766 9.46554C2.22689 8.83 2.28878 8.41232 2.44604 8.04362C2.6039 7.6735 2.86702 7.33129 3.35661 6.8969C3.85817 6.45189 4.54492 5.95427 5.52058 5.24884L6.96043 4.20777Z" fill="white"/>
</svg>
