<svg width="17" height="18" viewBox="0 0 17 18" fill="none" xmlns="http://www.w3.org/2000/svg">
<path d="M8.44672 0.537354C8.24339 0.537354 8.06827 0.607433 7.94118 0.675444C7.80941 0.745963 7.68692 0.837257 7.57824 0.929816C7.36138 1.11452 7.14444 1.3521 6.95062 1.58083C6.76977 1.79427 6.59424 2.01789 6.44461 2.20851L6.40757 2.25569C6.23974 2.46936 6.1251 2.61249 6.05527 2.68433C5.828 2.91816 5.83331 3.29195 6.06713 3.51923C6.30096 3.7465 6.67476 3.74119 6.90203 3.50737C7.02568 3.38016 7.18488 3.17775 7.3362 2.98509L7.37141 2.94026C7.52326 2.74682 7.68569 2.53994 7.85153 2.34422L7.8563 2.33859V8.21284C7.8563 8.53892 8.12064 8.80326 8.44672 8.80326C8.7728 8.80326 9.03714 8.53892 9.03714 8.21284V2.33859L9.04192 2.34422C9.20777 2.53995 9.37017 2.74681 9.52204 2.94025L9.55724 2.98509C9.70857 3.17775 9.86777 3.38016 9.99141 3.50737C10.2187 3.74119 10.5925 3.7465 10.8263 3.51923C11.0601 3.29195 11.0655 2.91816 10.8382 2.68433C10.7683 2.61249 10.6537 2.46936 10.4859 2.25569L10.4488 2.2085C10.2992 2.01788 10.1237 1.79426 9.94282 1.58083C9.74901 1.3521 9.53207 1.11452 9.3152 0.929816C9.20653 0.837257 9.08404 0.745963 8.95226 0.675444C8.82517 0.607433 8.65005 0.537354 8.44672 0.537354Z" fill="#D92D20"/>
<path d="M4.11711 5.11026C4.36008 4.89279 4.38076 4.51953 4.16329 4.27655C3.94582 4.03358 3.57256 4.0129 3.32959 4.23037C1.77225 5.62422 0.77124 7.49907 0.77124 9.78726C0.77124 14.0263 4.20767 17.4627 8.44672 17.4627C12.6858 17.4627 16.1222 14.0263 16.1222 9.78726C16.1222 7.49907 15.1212 5.62422 13.5639 4.23037C13.3209 4.0129 12.9476 4.03358 12.7302 4.27655C12.5127 4.51953 12.5334 4.89279 12.7763 5.11026C14.118 6.31105 14.9414 7.87873 14.9414 9.78726C14.9414 13.3741 12.0336 16.2819 8.44672 16.2819C4.85983 16.2819 1.95208 13.3741 1.95208 9.78726C1.95208 7.87873 2.77548 6.31105 4.11711 5.11026Z" fill="#D92D20"/>
</svg>
