<svg width="24" height="24" viewBox="0 0 24 24" fill="none" xmlns="http://www.w3.org/2000/svg">
<path fill-rule="evenodd" clip-rule="evenodd" d="M14.92 2.78674C12.9669 2.73767 11.033 2.73767 9.07992 2.78674L9.02176 2.7882C7.49693 2.82648 6.26996 2.85729 5.28664 3.02854C4.25714 3.20783 3.42042 3.55171 2.71356 4.26126C2.00965 4.96784 1.66758 5.79253 1.4917 6.80534C1.32423 7.76971 1.29872 8.96674 1.26713 10.4496L1.26587 10.5083C1.24463 11.5047 1.24463 12.4952 1.26588 13.4916L1.26713 13.5503C1.29872 15.0331 1.32423 16.2302 1.4917 17.1945C1.66758 18.2073 2.00966 19.032 2.71356 19.7386C3.42042 20.4482 4.25714 20.792 5.28664 20.9713C6.26995 21.1426 7.49691 21.1734 9.02171 21.2117L9.07993 21.2131C11.033 21.2622 12.9669 21.2622 14.92 21.2131L14.9782 21.2117C16.503 21.1734 17.7299 21.1426 18.7132 20.9713C19.7427 20.792 20.5795 20.4482 21.2863 19.7386C21.9902 19.032 22.3323 18.2073 22.5082 17.1945C22.6757 16.2302 22.7012 15.0331 22.7328 13.5503L22.734 13.4916C22.7553 12.4952 22.7553 11.5047 22.734 10.5083L22.7328 10.4496C22.7012 8.96676 22.6757 7.76973 22.5082 6.80536C22.3323 5.79255 21.9902 4.96786 21.2863 4.26128C20.5795 3.55173 19.7427 3.20785 18.7132 3.02855C17.7299 2.8573 16.5029 2.82649 14.9781 2.78821L14.92 2.78674ZM9.1176 4.28626C11.0455 4.23783 12.9544 4.23783 14.8823 4.28627C16.4789 4.32639 17.5947 4.35632 18.4559 4.50631C19.2834 4.65043 19.7994 4.89405 20.2237 5.31992C20.3976 5.49453 20.5405 5.68249 20.6582 5.89823L14.7173 9.26438C13.462 9.97564 12.7002 10.2499 12 10.2499C11.2998 10.2499 10.5381 9.97564 9.28279 9.26438L3.34175 5.89814C3.45944 5.68243 3.6023 5.49449 3.77623 5.31991C4.20049 4.89403 4.71646 4.65042 5.54399 4.5063C6.40523 4.35631 7.52093 4.32638 9.1176 4.28626ZM2.92096 7.38377C2.81748 8.17558 2.79462 9.1764 2.76553 10.5403C2.74474 11.5153 2.74474 12.4845 2.76553 13.4596C2.79871 15.0151 2.82379 16.0983 2.96958 16.9379C3.10917 17.7417 3.34901 18.2511 3.77623 18.68C4.2005 19.1058 4.71647 19.3495 5.544 19.4936C6.40524 19.6436 7.52094 19.6735 9.11761 19.7136C11.0455 19.7621 12.9544 19.7621 14.8823 19.7136C16.4789 19.6735 17.5947 19.6436 18.4559 19.4936C19.2834 19.3495 19.7994 19.1058 20.2237 18.68C20.6509 18.2511 20.8907 17.7417 21.0303 16.9379C21.1761 16.0983 21.2012 15.0151 21.2343 13.4596C21.2551 12.4845 21.2551 11.5153 21.2343 10.5403C21.2053 9.17647 21.1824 8.17568 21.0789 7.38387L15.4567 10.5694C14.1635 11.3022 13.1125 11.7499 12 11.7499C10.8876 11.7499 9.83661 11.3022 8.54333 10.5694L2.92096 7.38377Z" fill="#1B8354"/>
</svg>
