<svg width="23" height="22" viewBox="0 0 23 22" fill="none" xmlns="http://www.w3.org/2000/svg">
<path d="M14.6606 10.9912C14.6606 11.5432 15.1136 11.9912 15.6656 11.9912C16.2176 11.9912 16.6656 11.5432 16.6656 10.9912C16.6656 10.4392 16.2176 9.99121 15.6656 9.99121H15.6556C15.1036 9.99121 14.6606 10.4392 14.6606 10.9912Z" fill="#1B8354"/>
<path d="M10.6666 10.9912C10.6666 11.5432 11.1146 11.9912 11.6666 11.9912C12.2186 11.9912 12.6666 11.5432 12.6666 10.9912C12.6666 10.4392 12.2186 9.99121 11.6666 9.99121C11.1136 9.99121 10.6666 10.4392 10.6666 10.9912Z" fill="#1B8354"/>
<path d="M6.67056 10.9912C6.67056 11.5432 7.12354 11.9912 7.67554 11.9912C8.22754 11.9912 8.67554 11.5432 8.67554 10.9912C8.67554 10.4392 8.22754 9.99121 7.67554 9.99121H7.66558C7.11358 9.99121 6.67056 10.4392 6.67056 10.9912Z" fill="#1B8354"/>
<path fill-rule="evenodd" clip-rule="evenodd" d="M3.64765 21.2411C3.70265 21.2431 3.75664 21.2431 3.81064 21.2431L3.80859 21.2451C4.98459 21.2451 5.98366 20.929 6.85566 20.28L6.91757 20.2361C6.93519 20.2237 6.95287 20.2112 6.97048 20.1988C7.05778 20.1372 7.14323 20.0769 7.21064 20.0311C7.29918 20.0643 7.41524 20.112 7.53356 20.1606C7.55422 20.1691 7.57494 20.1776 7.5956 20.1861L7.71864 20.2371C8.24964 20.4561 8.86357 20.5961 9.44257 20.6321C10.8916 20.7341 12.4286 20.7341 13.8866 20.6321C18.4326 20.3271 22.0816 16.6301 22.3746 12.0291C22.4266 11.1631 22.4266 10.2851 22.3746 9.41607C22.0826 4.81707 18.4326 1.12009 13.8836 0.815094C12.4286 0.723094 10.8946 0.723094 9.44657 0.815094C4.90057 1.11909 1.25159 4.81712 0.958586 9.41812C0.906586 10.2841 0.906586 11.1621 0.958586 12.0311C1.05259 13.4941 1.62261 15.0141 2.65361 16.5501C2.96361 17.1511 2.63661 18.0161 2.30361 18.6411L2.28564 18.6751C1.8787 19.4419 1.58461 19.9962 1.92157 20.5981C1.92457 20.6031 1.92759 20.6083 1.93061 20.6136C1.93362 20.6188 1.93664 20.6241 1.93964 20.6291C2.29564 21.1991 2.88662 21.2181 3.56962 21.2391L3.64765 21.2411ZM3.55228 19.7373C3.50957 19.7362 3.46643 19.7351 3.4246 19.7331C3.4816 19.6201 3.54764 19.494 3.61064 19.376L3.62861 19.3431C4.37261 17.9461 4.48163 16.753 3.95263 15.797C3.94163 15.777 3.92957 15.7581 3.91757 15.7401C3.02457 14.4171 2.53158 13.1361 2.45458 11.9351C2.40658 11.1411 2.40658 10.3001 2.45458 9.50806C2.69958 5.65806 5.74864 2.56304 9.54364 2.30904C10.9276 2.22204 12.3956 2.22204 13.7866 2.30904C17.5836 2.56404 20.6326 5.65911 20.8776 9.50611C20.9256 10.3001 20.9256 11.1411 20.8776 11.9331C20.6316 15.7821 17.5836 18.8781 13.7856 19.1321H13.7836C12.3936 19.2301 10.9286 19.2301 9.54159 19.1321C9.12359 19.1061 8.66859 19.003 8.29159 18.847L8.16962 18.797C7.60999 18.5662 7.32852 18.4501 7.00263 18.5001C6.70514 18.546 6.48635 18.7015 6.05183 19.0105L6.0496 19.0121L5.98163 19.0601C5.97913 19.0616 5.97687 19.0634 5.9746 19.0651C5.97234 19.0668 5.97007 19.0686 5.96757 19.0701C5.31557 19.5561 4.60864 19.7611 3.68964 19.7411L3.61659 19.7391C3.59542 19.7384 3.57391 19.7379 3.55228 19.7373Z" fill="#1B8354"/>
</svg>
