<svg width="19" height="22" viewBox="0 0 19 22" fill="none" xmlns="http://www.w3.org/2000/svg">
<path d="M5.5 9.25005C5.08579 9.25005 4.75 9.58583 4.75 10C4.75 10.4143 5.08579 10.75 5.5 10.75H8.5C8.91421 10.75 9.25 10.4143 9.25 10C9.25 9.58583 8.91421 9.25005 8.5 9.25005H5.5Z" fill="#161616"/>
<path d="M5.5 5.25005C5.08579 5.25005 4.75 5.58583 4.75 6.00005C4.75 6.41426 5.08579 6.75005 5.5 6.75005L12.5 6.75005C12.9142 6.75005 13.25 6.41426 13.25 6.00005C13.25 5.58583 12.9142 5.25005 12.5 5.25005H5.5Z" fill="#161616"/>
<path fill-rule="evenodd" clip-rule="evenodd" d="M9.44628 0.25H10.3161C11.9099 0.249993 13.1651 0.249987 14.1609 0.353771C15.1776 0.459742 16.0137 0.680815 16.7289 1.18473C17.1107 1.45373 17.4512 1.77382 17.7393 2.13602C18.2842 2.82109 18.5245 3.62665 18.6389 4.59882C18.75 5.54325 18.75 6.73074 18.75 8.22463V10.8455C18.75 12.3039 18.75 13.4357 18.6898 14.349C18.6287 15.2748 18.5035 16.0283 18.2283 16.7226C17.3902 18.8375 15.6254 20.4886 13.4101 21.2663C12.0312 21.7504 10.3393 21.7502 7.37389 21.75L7.01118 21.75C5.37603 21.7504 4.35703 21.7506 3.51636 21.4555C2.16729 20.9819 1.08574 19.9738 0.570719 18.6742C0.396058 18.2334 0.321064 17.7655 0.285122 17.2206C0.249993 16.688 0.249997 16.0325 0.25 15.2082V8.9405C0.249981 7.10538 0.249966 5.64711 0.413138 4.50485C0.58185 3.32381 0.938013 2.37155 1.73077 1.62542C2.51711 0.885346 3.5099 0.558344 4.74244 0.40238C5.94685 0.249977 7.48835 0.249987 9.44628 0.25ZM4.93075 1.89051C3.84862 2.02745 3.21728 2.28623 2.75882 2.71772C2.30679 3.14317 2.04055 3.71951 1.89806 4.71697C1.7518 5.74091 1.75 7.09189 1.75 9V15.1818C1.75 16.0383 1.75038 16.6444 1.78187 17.1219C1.81292 17.5926 1.87191 17.8861 1.96521 18.1215C2.31176 18.996 3.05229 19.7028 4.0132 20.0401C4.58053 20.2393 5.31928 20.25 7.18182 20.25C7.50235 20.25 7.80496 20.2499 8.09115 20.2493C9.47531 20.2009 10.5826 19.0636 10.5826 17.6676C10.5826 17.5205 10.5761 17.3623 10.5678 17.1847L10.5648 17.1189C10.5575 16.964 10.5496 16.7953 10.5461 16.6272C10.5382 16.2471 10.5502 15.8036 10.6649 15.3754C10.8884 14.5415 11.5398 13.8901 12.3737 13.6666C12.8019 13.5519 13.2454 13.5399 13.6255 13.5478C13.7936 13.5513 13.9622 13.5592 14.1171 13.5665L14.183 13.5695C14.3606 13.5778 14.5188 13.5843 14.6659 13.5843C16.0926 13.5843 17.2492 12.4277 17.2492 11.0009C17.2492 10.9894 17.2495 10.978 17.25 10.9666C17.25 10.9176 17.25 10.8681 17.25 10.8182V8.27273C17.25 6.71989 17.2488 5.62069 17.1492 4.77411C17.0516 3.94515 16.8681 3.45047 16.5653 3.06976C16.3677 2.82123 16.1321 2.59913 15.865 2.41094C15.4478 2.11702 14.9023 1.93918 14.0054 1.84569C13.0965 1.75096 11.9194 1.75 10.2727 1.75H9.5C7.47655 1.75 6.03002 1.75142 4.93075 1.89051ZM17.1959 14.2063C16.5002 14.7561 15.6214 15.0843 14.6659 15.0843C14.4801 15.0843 14.2905 15.0761 14.1135 15.0679L14.0456 15.0648C13.8889 15.0574 13.7414 15.0505 13.5944 15.0474C13.2537 15.0404 12.9812 15.0568 12.762 15.1155C12.4456 15.2003 12.1986 15.4473 12.1138 15.7637C12.0551 15.9829 12.0387 16.2554 12.0457 16.5961C12.0488 16.7431 12.0557 16.8906 12.0631 17.0472L12.0662 17.1152C12.0744 17.2922 12.0826 17.4818 12.0826 17.6676C12.0826 18.6102 11.7632 19.4781 11.2268 20.1692C11.9199 20.1124 12.4442 20.0156 12.9132 19.851C14.7404 19.2096 16.1642 17.8597 16.8338 16.1699C17.0276 15.6809 17.1368 15.1019 17.193 14.2503C17.194 14.2357 17.1949 14.221 17.1959 14.2063Z" fill="#161616"/>
</svg>
