<svg width="40" height="40" viewBox="0 0 40 40" fill="none" xmlns="http://www.w3.org/2000/svg">
<path fill-rule="evenodd" clip-rule="evenodd" d="M24.1923 20.7115C24.0758 20.4321 23.8027 20.25 23.5 20.25C23.1972 20.25 22.9241 20.4321 22.8076 20.7115L20.3076 26.7115C20.1483 27.0939 20.3291 27.533 20.7115 27.6923C21.0938 27.8516 21.5329 27.6708 21.6923 27.2885L22.3333 25.75H24.6666L25.3076 27.2885C25.467 27.6708 25.9061 27.8516 26.2884 27.6923C26.6708 27.533 26.8516 27.0939 26.6923 26.7115L24.1923 20.7115ZM23.5 22.95L24.0416 24.25H22.9583L23.5 22.95Z" fill="#161616"/>
<path fill-rule="evenodd" clip-rule="evenodd" d="M17.4511 9.25H17.5489C19.1512 9.24999 20.4205 9.24998 21.4248 9.36868C22.4557 9.49055 23.3044 9.74638 24.0134 10.3282C24.2539 10.5256 24.4744 10.7461 24.6718 10.9866C25.3772 11.8462 25.6099 12.9234 25.6958 14.3042C27.0763 14.3901 28.1536 14.6226 29.0134 15.3282C29.2539 15.5256 29.4744 15.7461 29.6718 15.9866C30.2536 16.6956 30.5095 17.5443 30.6313 18.5752C30.75 19.5795 30.75 20.8488 30.75 22.451V22.5489C30.75 24.1511 30.75 25.4205 30.6313 26.4248C30.5095 27.4557 30.2536 28.3044 29.6718 29.0134C29.4744 29.2539 29.2539 29.4744 29.0134 29.6718C28.3044 30.2536 27.4557 30.5095 26.4248 30.6313C25.4205 30.75 24.1512 30.75 22.549 30.75H22.4511C20.8489 30.75 19.5795 30.75 18.5752 30.6313C17.5443 30.5095 16.6956 30.2536 15.9866 29.6718C15.7461 29.4744 15.5256 29.2539 15.3282 29.0134C14.6228 28.1538 14.3901 27.0766 14.3042 25.6958C12.9234 25.6099 11.8462 25.3772 10.9866 24.6718C10.7461 24.4744 10.5256 24.2539 10.3282 24.0134C9.74638 23.3044 9.49055 22.4557 9.36868 21.4248C9.24998 20.4205 9.24999 19.1512 9.25 17.5489V17.4511C9.24999 15.8488 9.24998 14.5795 9.36868 13.5753C9.49055 12.5443 9.74638 11.6956 10.3282 10.9866C10.5256 10.7461 10.7461 10.5256 10.9866 10.3282C11.6956 9.74638 12.5443 9.49055 13.5753 9.36868C14.5795 9.24998 15.8488 9.24999 17.4511 9.25ZM15.7843 25.2769C15.8525 26.7782 16.0496 27.528 16.4877 28.0618C16.6228 28.2263 16.7737 28.3772 16.9382 28.5123C17.3356 28.8384 17.862 29.0366 18.7513 29.1417C19.6572 29.2488 20.8379 29.25 22.5 29.25C24.1621 29.25 25.3428 29.2488 26.2487 29.1417C27.138 29.0366 27.6644 28.8384 28.0618 28.5123C28.2263 28.3772 28.3772 28.2263 28.5123 28.0618C28.8384 27.6644 29.0366 27.138 29.1417 26.2487C29.2488 25.3428 29.25 24.1621 29.25 22.5C29.25 20.8379 29.2488 19.6572 29.1417 18.7513C29.0366 17.862 28.8384 17.3356 28.5123 16.9382C28.3772 16.7737 28.2263 16.6228 28.0618 16.4877C27.5307 16.0519 26.7855 15.8543 25.2979 15.7852L15.7843 25.2769ZM24.2167 14.7451C24.1494 13.2291 23.9525 12.4746 23.5123 11.9382C23.3772 11.7737 23.2263 11.6228 23.0618 11.4877C22.6644 11.1616 22.138 10.9634 21.2487 10.8583C20.3428 10.7512 19.1621 10.75 17.5 10.75C15.8379 10.75 14.6572 10.7512 13.7513 10.8583C12.862 10.9634 12.3356 11.1616 11.9382 11.4877C11.7737 11.6228 11.6228 11.7737 11.4877 11.9382C11.1616 12.3356 10.9634 12.862 10.8583 13.7513C10.7512 14.6572 10.75 15.8379 10.75 17.5C10.75 19.1621 10.7512 20.3428 10.8583 21.2487C10.9634 22.138 11.1616 22.6644 11.4877 23.0618C11.6228 23.2263 11.7737 23.3772 11.9382 23.5123C12.4721 23.9505 13.2221 24.1476 14.7241 24.2158L24.2167 14.7451Z" fill="#161616"/>
<path d="M14.875 20H18V18.6H14.875C14.5304 18.6 14.25 18.286 14.25 17.9C14.25 17.514 14.5304 17.2 14.875 17.2H17.375V15.8H16.125C15.7804 15.8 15.5 15.486 15.5 15.1C15.5 14.714 15.7804 14.4 16.125 14.4H17.375V13H16.125C15.0911 13 14.25 13.9421 14.25 15.1C14.25 15.3733 14.2974 15.6343 14.3825 15.874C13.5869 16.1169 13 16.9329 13 17.9C13 19.0579 13.8411 20 14.875 20Z" fill="#161616"/>
</svg>
