<svg width="24" height="24" viewBox="0 0 24 24" fill="none" xmlns="http://www.w3.org/2000/svg">
<path fill-rule="evenodd" clip-rule="evenodd" d="M7.00025 6.25012C6.7186 6.25012 6.4607 6.40792 6.33248 6.65868C6.20426 6.90945 6.22734 7.21091 6.39224 7.43924L10.2118 12.7279L6.46992 16.4698C6.17702 16.7627 6.17702 17.2376 6.46992 17.5305C6.76281 17.8233 7.23768 17.8233 7.53058 17.5305L11.1014 13.9596L13.6145 17.4392C13.7555 17.6345 13.9816 17.7501 14.2225 17.7501H17.0002C17.2819 17.7501 17.5398 17.5923 17.668 17.3416C17.7962 17.0908 17.7732 16.7893 17.6083 16.561L13.7887 11.2724L17.5306 7.53045C17.8235 7.23756 17.8235 6.76269 17.5306 6.46979C17.2377 6.1769 16.7628 6.1769 16.4699 6.46979L12.8991 10.0406L10.386 6.561C10.245 6.36577 10.0189 6.25012 9.77802 6.25012H7.00025ZM15.5334 16.2501H14.606L8.46706 7.75012H9.39454L15.5334 16.2501Z" fill="#161616"/>
<path fill-rule="evenodd" clip-rule="evenodd" d="M12.0574 1.75012H11.9431C9.75237 1.75011 8.03168 1.7501 6.68827 1.93072C5.31161 2.1158 4.21936 2.50284 3.36116 3.36104C2.50296 4.21923 2.11592 5.31149 1.93084 6.68815C1.75022 8.03156 1.75023 9.75224 1.75024 11.9429V12.0573C1.75023 14.248 1.75022 15.9687 1.93084 17.3121C2.11592 18.6888 2.50296 19.781 3.36116 20.6392C4.21936 21.4974 5.31161 21.8844 6.68827 22.0695C8.03168 22.2501 9.75235 22.2501 11.943 22.2501H12.0574C14.2481 22.2501 15.9688 22.2501 17.3122 22.0695C18.6889 21.8844 19.7811 21.4974 20.6393 20.6392C21.4975 19.781 21.8846 18.6888 22.0697 17.3121C22.2503 15.9687 22.2503 14.248 22.2502 12.0573V11.943C22.2503 9.75226 22.2503 8.03156 22.0697 6.68815C21.8846 5.31149 21.4975 4.21923 20.6393 3.36104C19.7811 2.50284 18.6889 2.1158 17.3122 1.93072C15.9688 1.7501 14.2481 1.75011 12.0574 1.75012ZM4.42182 4.4217C4.95486 3.88865 5.67781 3.58006 6.88814 3.41734C8.12004 3.25172 9.73987 3.25012 12.0002 3.25012C14.2606 3.25012 15.8804 3.25172 17.1123 3.41734C18.3227 3.58006 19.0456 3.88865 19.5787 4.4217C20.1117 4.95474 20.4203 5.67769 20.583 6.88802C20.7487 8.11992 20.7502 9.73975 20.7502 12.0001C20.7502 14.2605 20.7487 15.8803 20.583 17.1122C20.4203 18.3226 20.1117 19.0455 19.5787 19.5785C19.0456 20.1116 18.3227 20.4202 17.1123 20.5829C15.8804 20.7485 14.2606 20.7501 12.0002 20.7501C9.73987 20.7501 8.12004 20.7485 6.88814 20.5829C5.67781 20.4202 4.95486 20.1116 4.42182 19.5785C3.88877 19.0455 3.58019 18.3226 3.41746 17.1122C3.25184 15.8803 3.25024 14.2605 3.25024 12.0001C3.25024 9.73975 3.25184 8.11992 3.41746 6.88802C3.58019 5.67769 3.88877 4.95474 4.42182 4.4217Z" fill="#161616"/>
</svg>
