<svg width="25" height="24" viewBox="0 0 25 24" fill="none" xmlns="http://www.w3.org/2000/svg">
<path fill-rule="evenodd" clip-rule="evenodd" d="M12.5839 2.59387C10.9476 2.59357 9.33995 3.02243 7.92126 3.83765C6.50257 4.65287 5.3225 5.82593 4.49885 7.23974C3.6752 8.65355 3.23678 10.2587 3.22734 11.8949C3.21789 13.5311 3.63777 15.1411 4.44504 16.5644C4.99069 15.8552 5.6921 15.2811 6.49506 14.8863C7.29801 14.4915 8.181 14.2867 9.07576 14.2876H16.092C16.9868 14.2867 17.8697 14.4915 18.6727 14.8863C19.4757 15.2811 20.1771 15.8552 20.7227 16.5644C21.53 15.1411 21.9499 13.5311 21.9404 11.8949C21.931 10.2587 21.4926 8.65355 20.6689 7.23974C19.8453 5.82593 18.6652 4.65287 17.2465 3.83765C15.8278 3.02243 14.2201 2.59357 12.5839 2.59387ZM21.8722 19.054C23.4357 17.0157 24.2814 14.5177 24.2776 11.9489C24.2776 5.49041 19.0423 0.255127 12.5839 0.255127C6.12543 0.255127 0.89015 5.49041 0.89015 11.9489C0.886289 14.5177 1.73199 17.0158 3.29555 19.054L3.2897 19.075L3.70483 19.558C4.80157 20.8402 6.1633 21.8694 7.69617 22.5745C9.22904 23.2797 10.8966 23.6441 12.5839 23.6426C14.9546 23.647 17.27 22.9268 19.2201 21.5786C20.0514 21.0043 20.8052 20.3251 21.4629 19.558L21.8781 19.075L21.8722 19.054ZM12.5839 4.93262C11.6535 4.93262 10.7612 5.30222 10.1033 5.96012C9.44536 6.61802 9.07576 7.51033 9.07576 8.44074C9.07576 9.37115 9.44536 10.2635 10.1033 10.9214C10.7612 11.5793 11.6535 11.9489 12.5839 11.9489C13.5143 11.9489 14.4066 11.5793 15.0645 10.9214C15.7224 10.2635 16.092 9.37115 16.092 8.44074C16.092 7.51033 15.7224 6.61802 15.0645 5.96012C14.4066 5.30222 13.5143 4.93262 12.5839 4.93262Z" fill="#1B8354"/>
</svg>
